<mxfile host="65bd71144e">
    <diagram id="5tFa7ln2qNkY3VuHO3aZ" name="Page-1">
        <mxGraphModel dx="1054" dy="548" grid="1" gridSize="10" guides="1" tooltips="1" connect="1" arrows="1" fold="1" page="1" pageScale="1" pageWidth="850" pageHeight="1100" math="0" shadow="0">
            <root>
                <mxCell id="0"/>
                <mxCell id="1" parent="0"/>
                <mxCell id="3" value="YES" style="edgeStyle=none;html=1;exitX=1;exitY=1;exitDx=0;exitDy=0;rounded=1;fillColor=none;strokeWidth=2;" edge="1" parent="1" source="2" target="4">
                    <mxGeometry relative="1" as="geometry">
                        <mxPoint x="490" y="400" as="targetPoint"/>
                    </mxGeometry>
                </mxCell>
                <mxCell id="10" value="NO" style="edgeStyle=none;html=1;exitX=0;exitY=1;exitDx=0;exitDy=0;rounded=1;fillColor=none;strokeWidth=2;" edge="1" parent="1" source="2" target="11">
                    <mxGeometry relative="1" as="geometry">
                        <mxPoint x="350" y="370" as="targetPoint"/>
                    </mxGeometry>
                </mxCell>
                <mxCell id="2" value="Region" style="rhombus;whiteSpace=wrap;html=1;rounded=1;fillColor=none;strokeWidth=2;" vertex="1" parent="1">
                    <mxGeometry x="370" y="280" width="80" height="80" as="geometry"/>
                </mxCell>
                <mxCell id="5" value="YES" style="edgeStyle=none;html=1;exitX=1;exitY=1;exitDx=0;exitDy=0;rounded=1;fillColor=none;strokeWidth=2;" edge="1" parent="1" source="4">
                    <mxGeometry relative="1" as="geometry">
                        <mxPoint x="558.4615384615386" y="461.53846153846155" as="targetPoint"/>
                    </mxGeometry>
                </mxCell>
                <mxCell id="8" value="NO" style="edgeStyle=none;html=1;exitX=0;exitY=1;exitDx=0;exitDy=0;rounded=1;fillColor=none;strokeWidth=2;" edge="1" parent="1" source="4" target="9">
                    <mxGeometry relative="1" as="geometry">
                        <mxPoint x="440" y="450" as="targetPoint"/>
                    </mxGeometry>
                </mxCell>
                <mxCell id="4" value="Expresion" style="rhombus;whiteSpace=wrap;html=1;rounded=1;fillColor=none;strokeWidth=2;" vertex="1" parent="1">
                    <mxGeometry x="450" y="360" width="80" height="80" as="geometry"/>
                </mxCell>
                <mxCell id="7" value="combined&lt;br&gt;search" style="ellipse;whiteSpace=wrap;html=1;rounded=1;fillColor=none;strokeWidth=2;" vertex="1" parent="1">
                    <mxGeometry x="540" y="460" width="70" height="73.33" as="geometry"/>
                </mxCell>
                <mxCell id="9" value="deploy card according&lt;br&gt;to selected Region" style="ellipse;whiteSpace=wrap;html=1;rounded=1;fillColor=none;strokeWidth=2;" vertex="1" parent="1">
                    <mxGeometry x="330" y="453.33" width="140" height="80" as="geometry"/>
                </mxCell>
                <mxCell id="13" value="YES" style="edgeStyle=none;html=1;exitX=0;exitY=1;exitDx=0;exitDy=0;entryX=0.608;entryY=0.013;entryDx=0;entryDy=0;entryPerimeter=0;rounded=1;fillColor=none;strokeWidth=2;" edge="1" parent="1" source="11" target="12">
                    <mxGeometry relative="1" as="geometry"/>
                </mxCell>
                <mxCell id="11" value="Expresion" style="rhombus;whiteSpace=wrap;html=1;rounded=1;fillColor=none;strokeWidth=2;" vertex="1" parent="1">
                    <mxGeometry x="270" y="360" width="80" height="80" as="geometry"/>
                </mxCell>
                <mxCell id="12" value="deploy card according&lt;br&gt;to selected Expresion" style="ellipse;whiteSpace=wrap;html=1;rounded=1;fillColor=none;strokeWidth=2;" vertex="1" parent="1">
                    <mxGeometry x="170" y="453.33" width="140" height="80" as="geometry"/>
                </mxCell>
                <mxCell id="16" style="edgeStyle=none;html=1;exitX=0.5;exitY=1;exitDx=0;exitDy=0;entryX=0.5;entryY=0;entryDx=0;entryDy=0;rounded=1;fillColor=none;strokeWidth=2;" edge="1" parent="1" source="15" target="2">
                    <mxGeometry relative="1" as="geometry"/>
                </mxCell>
                <mxCell id="15" value="Start" style="ellipse;whiteSpace=wrap;html=1;aspect=fixed;rounded=1;fillColor=none;strokeWidth=2;" vertex="1" parent="1">
                    <mxGeometry x="370" y="150" width="80" height="80" as="geometry"/>
                </mxCell>
                <mxCell id="18" value="NO" style="curved=1;endArrow=classic;html=1;entryX=0.138;entryY=0.075;entryDx=0;entryDy=0;entryPerimeter=0;rounded=1;fillColor=none;strokeWidth=2;" edge="1" parent="1" source="11" target="15">
                    <mxGeometry x="-0.8357" y="1" width="50" height="50" relative="1" as="geometry">
                        <mxPoint x="150" y="290" as="sourcePoint"/>
                        <mxPoint x="410" y="110" as="targetPoint"/>
                        <Array as="points">
                            <mxPoint x="200" y="310"/>
                            <mxPoint x="250" y="150"/>
                            <mxPoint x="350" y="120"/>
                        </Array>
                        <mxPoint as="offset"/>
                    </mxGeometry>
                </mxCell>
            </root>
        </mxGraphModel>
    </diagram>
</mxfile>